<?xml version="1.0" standalone="no"?>
<!DOCTYPE svg PUBLIC "-//W3C//DTD SVG 1.1//EN" "http://www.w3.org/Graphics/SVG/1.1/DTD/svg11.dtd" >
<svg xmlns="http://www.w3.org/2000/svg">
<metadata>
Created by FontForge 20120731 at Tue Mar 29 16:41:23 2016
 By Ads
</metadata>
<defs>
<font id="iconfont" horiz-adv-x="1024" >
  <font-face 
    font-family="iconfont"
    font-weight="500"
    font-stretch="normal"
    units-per-em="1024"
    panose-1="2 0 6 3 0 0 0 0 0 0"
    ascent="896"
    descent="-128"
    x-height="792"
    bbox="0 -128 1024 895.806"
    underline-thickness="50"
    underline-position="-100"
    unicode-range="U+0078-E612"
  />
<missing-glyph horiz-adv-x="374" 
d="M34 0v682h272v-682h-272zM68 34h204v614h-204v-614z" />
    <glyph glyph-name=".notdef" horiz-adv-x="374" 
d="M34 0v682h272v-682h-272zM68 34h204v614h-204v-614z" />
    <glyph glyph-name=".null" horiz-adv-x="0" 
 />
    <glyph glyph-name="nonmarkingreturn" horiz-adv-x="341" 
 />
    <glyph glyph-name="x" unicode="x" horiz-adv-x="1001" 
d="M281 543q-27 -1 -53 -1h-83q-18 0 -36.5 -6t-32.5 -18.5t-23 -32t-9 -45.5v-76h912v41q0 16 -0.5 30t-0.5 18q0 13 -5 29t-17 29.5t-31.5 22.5t-49.5 9h-133v-97h-438v97zM955 310v-52q0 -23 0.5 -52t0.5 -58t-10.5 -47.5t-26 -30t-33 -16t-31.5 -4.5q-14 -1 -29.5 -0.5
t-29.5 0.5h-32l-45 128h-439l-44 -128h-29h-34q-20 0 -45 1q-25 0 -41 9.5t-25.5 23t-13.5 29.5t-4 30v167h911zM163 247q-12 0 -21 -8.5t-9 -21.5t9 -21.5t21 -8.5q13 0 22 8.5t9 21.5t-9 21.5t-22 8.5zM316 123q-8 -26 -14 -48q-5 -19 -10.5 -37t-7.5 -25t-3 -15t1 -14.5
t9.5 -10.5t21.5 -4h37h67h81h80h64h36q23 0 34 12t2 38q-5 13 -9.5 30.5t-9.5 34.5q-5 19 -11 39h-368zM336 498v228q0 11 2.5 23t10 21.5t20.5 15.5t34 6h188q31 0 51.5 -14.5t20.5 -52.5v-227h-327z" />
    <glyph glyph-name="uniE600" unicode="&#xe600;" 
d="M512 709q-74 0 -137 -36.5t-99.5 -99t-36.5 -137.5q0 -73 37 -136l236 -409l236 409q18 31 27.5 65.5t9.5 70.5q0 25 -4.5 49.5t-13 46.5t-20 42.5t-26.5 38t-33 32.5t-38.5 27t-42.5 20.5t-46 12.5t-49 4zM512 368q-19 0 -34.5 9t-24.5 25t-9 34q0 29 20 49t48 20
t48 -20t20 -49q0 -9 -2.5 -18t-6.5 -16t-10.5 -13.5t-14 -11t-16.5 -7t-18 -2.5z" />
    <glyph glyph-name="uniE601" unicode="&#xe601;" 
d="M805 227q-73 0 -117 -58l-307 183q6 22 6 42q0 4 -1 13l307 185q21 -24 50 -37.5t62 -13.5q60 0 103 42.5t43 103.5t-43 103.5t-103.5 42.5t-103.5 -42.5t-43 -103.5q0 -23 8 -46l-305 -158q-23 36 -60 57.5t-81 21.5q-70 0 -119 -49t-49 -118.5t49 -118.5t119 -49
q74 0 124 56l319 -165q-1 -5 -2 -9.5t-1 -8.5l-2 -10v-9q0 -30 12 -57t31.5 -46.5t46.5 -31t57 -11.5q60 0 103 42.5t43 103.5q0 30 -11.5 57t-31 46.5t-47 31t-56.5 11.5z" />
    <glyph glyph-name="uniE602" unicode="&#xe602;" 
d="M481 532v176q0 7 -2 13q-3 6 -7 11q-10 9 -23 9t-23 -9l-321 -321q-6 -7 -8 -15.5t1 -16.5q-3 -17 8 -28l319 -319q11 -11 26 -9q13 0 21.5 9.5t8.5 22.5v173q49 -5 102.5 -48t67.5 -100l47 27q-7 27 -19.5 51.5t-29.5 45t-38.5 37t-45.5 28.5t-51 18.5t-56 6.5h-1h-2v-1
q-1 0 -2.5 0.5t-3.5 0.5q-13 0 -22 -9.5t-9 -22.5v-133l-252 252l252 252v-132q0 -13 9 -22.5t22 -9.5h1h1h16q133 0 242.5 -71.5t163.5 -188.5l55 32q-61 128 -181 207.5t-266 83.5z" />
    <glyph glyph-name="uniE603" unicode="&#xe603;" 
d="M241 423l-1 5l-1 5l-1 4v4v5v4l1 5l2 6l2 5l2 7l3 6l5 7v5l1 4v6l2 7l2 7l2 3l1 4l3 3l2 3v4v6v6l1 9l2 10l2 11l4 13l2 6l3 8l3 7l3 7l3 8l4 8l5 8l5 8l3 4l2 4l6 9l6 8l7 9l8 9l8 8l8 9l10 9l7 6l7 6l8 5l9 5l8 5l10 4l9 4l10 4l10 3l11 3l10 3l11 2l12 2l11 1l11 2h12
h11h12h12l12 -1l11 -2l12 -1l12 -2l11 -3l11 -3l12 -3l11 -4l11 -4l11 -5l11 -5l10 -6l9 -6l9 -6l4 -4l4 -2l8 -7l7 -6l6 -7l7 -7l5 -7l6 -8l5 -8l4 -7l5 -8l4 -7l6 -15l4 -8l2 -7l3 -8l2 -7l1 -7l3 -7l3 -13l2 -12l2 -11l1 -9l2 -14l1 -2l1 -3l5 -7l2 -5l3 -5l3 -5l3 -7
l2 -6l2 -8l1 -7l1 -4l1 -4v-4l-1 -4v-5l-1 -5l-2 -9l-3 -4l-1 -6v-1v-1l3 -4l10 -16l8 -11l4 -8l6 -8l4 -9l5 -10l6 -11l6 -13l3 -8l3 -7l3 -8l2 -7l2 -8l2 -7l3 -13l2 -14l1 -13v-7v-5v-5l-1 -6l-1 -11l-2 -10l-3 -9l-1 -3l-2 -4l-1 -3l-2 -4l-2 -2l-3 -3l-2 -3l-3 -2
l-2 -1l-3 -1l-2 -1h-2h-1l-2 1l-4 2l-2 1l-2 1l-2 2l-2 2l-3 4l-5 5l-3 6l-3 4l-3 6l-4 9l-5 9l-1 1h-1l-2 -2l-1 -2l-2 -3l-3 -10l-5 -13l-7 -16l-5 -8l-5 -8l-6 -9l-6 -10l-4 -4l-4 -4l-9 -9l1 -1l1 -1l5 -3l19 -9l8 -5l8 -5l8 -5l7 -6l4 -3l2 -3l3 -4l2 -4l1 -3l2 -4v-3
l1 -4l-1 -3v-2v-3l-2 -3v-1l-2 -3l-3 -5l-3 -3l-3 -3l-2 -2l-5 -4l-6 -4l-7 -3l-7 -3l-7 -3l-4 -1l-4 -1l-9 -2l-9 -2l-9 -2l-10 -2h-11l-10 -2h-11h-11h-11l-12 1l-11 1l-12 2l-12 1l-12 2l-12 3l-12 2l-12 3l-12 5l-11 3l-6 2l-6 2l-3 2h-4h-4h-6l-11 1l-6 1l-7 1l-5 -5
l-6 -4l-9 -4l-10 -5l-6 -3l-6 -2l-13 -6l-8 -2l-7 -2l-11 -2l-7 -1h-7l-7 -1h-9h-8h-9h-18h-20l-19 2l-10 1l-9 2l-9 1l-10 2l-8 3l-9 2l-7 3l-8 3l-6 3l-6 3l-6 5l-2 2l-3 2l-2 3l-2 2l-1 3l-1 2l-2 6l-1 2l-1 3v3l1 3v4l1 3v2v4v4l2 4l1 4l2 4l2 2l1 2l4 5l3 2l3 2l2 2
l4 1l3 2l4 2l5 1l5 2l5 1l5 1h6l6 1h2l1 1v1l-1 2l-3 1l-9 8l-6 4l-6 6l-7 7l-7 8l-8 9l-3 6l-4 5l-4 6l-3 7l-4 6l-3 7l-3 7l-3 9l-3 7l-2 10h-1l-1 1l-2 -1l-1 -2l-1 -2v-2l-2 -2l-4 -7l-2 -5l-3 -3l-3 -5l-4 -5l-4 -4l-5 -4l-4 -4l-5 -4l-5 -3l-5 -2l-6 -1l-6 -1h-1h-1
l-1 1l-1 2l-2 1l-2 6l-1 3l-2 4l-1 4l-1 5l-2 10v6v6v13v14l1 8l2 7l1 8l2 8l3 9l2 8l4 9l3 8l4 9l5 9l5 9l6 9l6 8l6 10l5 6l7 8l7 7l4 4l4 4l5 5l6 5l10 9l8 5z" />
    <glyph glyph-name="uniE604" unicode="&#xe604;" 
d="M512 704q59 0 123 -27t116 -66.5t97.5 -85t73.5 -83t36 -58.5q-8 -21 -36 -58.5t-73.5 -83t-97.5 -85t-116 -66.5t-123 -27t-123.5 27t-116.5 67t-97.5 85t-73 82.5t-35.5 58.5q6 17 27.5 46.5t53 65.5t74.5 72.5t88.5 67t99.5 49.5t103 19zM512 768q-72 0 -150.5 -33.5
t-141 -83.5t-113.5 -104t-79 -98.5t-28 -64.5t28 -64.5t79 -98.5t113 -104t140.5 -83.5t151.5 -33.5t151 33.5t140.5 83.5t113.5 104t79 98.5t28 64.5t-28 64.5t-79.5 98.5t-113.5 104t-140.5 83.5t-150.5 33.5zM512 544q-66 0 -113 -47t-47 -113t47 -113t113 -47t113 47
t47 113t-47 113t-113 47zM512 288q-40 0 -68 28t-28 68t28 68t68 28t68 -28t28 -68t-28 -68t-68 -28z" />
    <glyph glyph-name="uniE605" unicode="&#xe605;" 
d="M743 394q-17 4 -21.5 10.5t-1.5 11.5l4 6q1 2 3.5 6.5t6 17t4.5 25t-4 28t-18 27.5q-15 15 -39.5 20t-49 1t-47 -10t-36.5 -12l-14 -6q-10 -3 -17.5 -4.5t-11.5 0t-6 3.5t-1.5 8t1 10t3 13.5t3.5 15.5q0 16 -2.5 30t-12 29.5t-25 23.5t-44 7.5t-66.5 -13.5
q-37 -13 -77 -39.5t-68 -52t-55 -56t-35.5 -41.5t-13.5 -18q-72 -96 -70 -182l1 -7q24 -218 364 -245q60 -4 126 6.5t127 33.5t110.5 63t72.5 90q16 33 19 62t-5 49.5t-20.5 37t-29.5 27t-30 16.5t-24 8zM408 53q-118 -6 -201 46t-83 131q0 51 38 95t103.5 71t142.5 30
q120 6 202.5 -39.5t82.5 -122.5q0 -81 -85 -143q-84 -63 -200 -68zM377 357q-114 -13 -136 -114q-7 -29 -4 -53q-1 -47 43 -71q71 -35 134 -21t101 64q15 18 20 45.5t-2.5 55.5t-24.5 51.5t-51.5 35.5t-79.5 7zM337 148.5q-22 -2.5 -37.5 9t-15.5 29.5q0 19 14.5 35t35.5 19
q25 2 40.5 -10t15.5 -31t-15.5 -34t-37.5 -17.5zM430 228q-7 -5 -15 -4.5t-12 7.5q-5 6 -3 15.5t9 14.5q6 4 12 5t10.5 -1t6.5 -6q3 -5 3 -10.5t-3 -11t-8 -9.5zM820 459q6 0 11.5 2.5t9 7.5t4.5 11v2v1q14 124 -84 143q-30 6 -58 1q-7 0 -13 -3.5t-9.5 -9.5t-3.5 -13
q0 -11 8 -18.5t18 -7.5q34 7 54 0.5t28 -21.5t10 -30.5t0 -27.5l-1 -12q0 -4 1 -8t3.5 -7t6 -5.5t7.5 -3.5t8 -1zM801 762q-55 13 -129 -1q-1 0 -2 -1t-2 -1h-1q-12 -4 -19.5 -14t-7.5 -23q0 -8 3 -15t8 -12t12 -8t14 -3q21 3 34 8q6 1 19.5 2.5t36 -4.5t45 -14.5
t46.5 -28.5t40 -47q14 -32 16.5 -64t1 -40t-5.5 -22q-8 -18 -8 -36q0 -15 11 -24.5t27 -9.5q10 0 16 1.5t12 9t8 21.5q13 43 15 81.5t-5 69t-21.5 57t-33 45.5t-41.5 34t-45 24.5t-44 14.5z" />
    <glyph glyph-name="uniE606" unicode="&#xe606;" 
d="M283 92v-1h1h1v1l-1 -1zM92 503l1 12l2 9l1 3l1 7l2 5l1 7l1 3l1 3l2 5l1 4l1 3l2 5l1 2l1 3l1 4l2 3l1 3l1 4l1 2l2 3l1 2l1 3l2 3l1 2l1 3l1 2l2 2l1 1l1 4l2 2l1 1l1 2l1 2l2 3l1 2l1 1l1 2l2 2l1 1l1 2l2 2l1 2l1 1l1 2l2 2l1 1l1 2l2 2l1 1l1 2l1 2l2 1l2 2l1 2l2 1
l1 2l1 2l2 2l1 1l2 2l2 2l1 1l1 2l3 2l1 1l1 2l2 2l2 1l1 2l3 2l1 1l3 2l1 2l1 2l3 1l1 2l3 2l1 1l3 2l1 2l2 1l2 2l2 2l2 1l2 2l3 2l2 2l3 1l2 2l3 2l2 1l3 2l1 2l3 1l2 2l3 2l3 1l3 2l3 2l2 1l3 2l4 2l2 2l3 1l3 2l3 2l3 1l4 2l2 2l4 1l3 2l4 2l3 1l4 2l3 2l5 2l4 1l2 2
l4 2l4 1l4 2l5 2l4 1l5 2l5 2l5 1l5 2l5 2l7 1l5 2l6 2l7 2l2 1l6 2l8 2l8 1l7 2l9 2l11 1l12 2l14 2l18 1h82l18 -1l14 -2l13 -2l10 -1l9 -2l8 -2l6 -1l5 -2l7 -2l6 -1l6 -2l7 -2l6 -2l5 -1l5 -2l5 -2l6 -1l2 -2l5 -2l4 -1l5 -2l4 -2l4 -1l5 -2l4 -2l4 -1l1 -2l5 -2l3 -2
l3 -1l4 -2l4 -2l3 -1l2 -2l3 -2l4 -1l3 -2l3 -2l4 -1l2 -2l2 -2l2 -2l4 -1l3 -2l2 -2l3 -1l4 -2l1 -2l2 -1l3 -2l2 -2l3 -1l3 -2l2 -2l3 -1l1 -2l3 -2l2 -2l3 -1l1 -2l2 -2l3 -1l1 -2l3 -2l1 -1l3 -2l2 -2l2 -1l2 -2l1 -2l2 -2l2 -1l1 -2l3 -2l1 -1l2 -2l2 -2l1 -1l3 -2
l1 -2l2 -1l2 -2l1 -2l2 -1l1 -2l2 -2l2 -2l1 -1l1 -2l3 -2l1 -1l1 -2l2 -2l1 -1l1 -2l2 -2l1 -1l1 -2l3 -2l1 -1l1 -2l1 -2l2 -2l1 -1l1 -2l2 -2l1 -1l1 -2l1 -2l2 -1l1 -2l1 -3l2 -2l1 -2l1 -2l1 -1l2 -4l1 -1l1 -2l1 -2l2 -1l1 -4l1 -1l2 -2l1 -3l1 -2l1 -4l2 -3l1 -2
l1 -1l2 -4l1 -3l1 -3l1 -2l2 -3l1 -4l1 -5l1 -3l2 -2l1 -5l1 -5l2 -5l1 -2l1 -5l1 -7l2 -8l1 -4l1 -10v-42l-1 -10l-1 -3l-2 -9l-1 -7l-1 -5l-1 -5l-2 -3l-1 -4l-1 -5l-2 -3l-1 -3l-1 -4l-1 -1l-2 -4l-1 -1l-1 -4l-1 -2l-2 -3l-1 -2l-1 -3l-2 -2l-1 -1l-1 -2l-1 -3l-2 -2
l-1 -2l-1 -2l-2 -1l-1 -2l-1 -3l-1 -2l-2 -2l-1 -1l-1 -2l-1 -2l-2 -1l-2 -2l-2 -2l-1 -1l-1 -2l-1 -2l-2 -2l-1 -1l-1 -2l-3 -2l-1 -1l-1 -2l-2 -2l-2 -1l-1 -2l-2 -2l-2 -1l-2 -2l-2 -2l-1 -1l-3 -2l-3 -2l-1 -2l-2 -1l-3 -2l-1 -2l-3 -1l-2 -2l-3 -2l-2 -1l-2 -2l-2 -2
l-3 -1l-2 -2l-3 -2l-2 -1l-3 -2l-3 -2l-2 -2l-3 -1l-2 -2l-3 -2l-2 -1l-3 -2l-2 -2l-4 -1l-3 -2l-4 -2l-2 -1l-3 -2l-2 -2l-3 -2l-4 -1l-4 -2l-2 -2l-4 -1l-3 -2l-3 -2l-4 -1l-5 -2l-3 -2l-4 -1l-4 -2l-5 -2l-5 -1l-4 -2l-5 -2l-4 -2l-3 -1l-4 -2l-5 -2l-4 -1l-5 -2l-5 -2
l-5 -1l-7 -2l-5 -2l-5 -1l-6 -2l-7 -2l-5 -1l-8 -2l-7 -2l-7 -2l-5 -1l-7 -2l-9 -2l-11 -1l-12 -2l-9 -2l-12 -1l-13 -2l-5 -2l-1 -1l-1 -2l-2 -2l-1 -2l-1 -1l-1 -4l-2 -1l-1 -2l-1 -2l-2 -3l-1 -2l-1 -1l-1 -2l-2 -2l-1 -1l-1 -2l-1 -2l-2 -2l-1 -1l-1 -2l-2 -2l-1 -1
l-1 -4l-3 -1l-1 -2l-1 -3l-2 -2l-1 -2l-1 -1l-3 -2l-1 -2l-1 -2l-1 -1l-2 -2l-1 -2l-1 -1l-2 -2l-1 -2l-1 -1l-1 -2l-2 -2l-1 -1l-1 -2l-3 -2l-1 -2l-1 -1l-2 -2l-1 -2l-1 -1l-3 -2l-1 -2l-1 -1l-3 -2l-1 -2l-1 -1l-3 -2l-1 -2l-3 -1l-1 -2l-1 -2l-2 -2l-2 -1l-3 -2l-1 -2
l-3 -1l-1 -2l-2 -2l-2 -1l-2 -2l-2 -2l-2 -1l-3 -2l-2 -2l-3 -1l-2 -2l-3 -2l-2 -2l-4 -1l-4 -2l-3 -2l-3 -1l-4 -2l-5 -2l-6 -1l-3 -2l-7 -2l-9 -1h-5l3 1l1 2l1 2l2 1l1 2l1 2l1 1l2 2l1 2l1 1l2 4l1 2l1 1l1 4l2 1l1 2l1 3l1 2l2 3l1 4l1 1l2 4l1 3l1 4l1 3l2 3l1 4l1 5
l2 5l1 3l1 4l1 6l2 4l1 5l1 7l1 5l2 5l1 5l1 5l2 8l1 7v14l-10 1l-17 2l-9 2l-9 1l-10 2l-8 2l-6 1l-7 2l-8 2l-7 1l-6 2l-5 2l-5 2l-8 1l-5 2l-5 2l-4 1l-5 2l-5 2l-4 1l-4 2l-4 2l-4 1l-4 2l-3 2l-3 1l-4 2l-4 2l-2 2l-4 1l-4 2l-4 2l-4 1l-2 2l-4 2l-2 1l-4 2l-3 2l-2 1
l-3 2l-3 2l-2 2l-3 1l-2 2l-3 2l-2 1l-3 2l-2 2l-3 1l-3 2l-2 2l-3 1l-2 2l-3 2l-1 1l-3 2l-2 2l-1 2l-3 1l-1 2l-3 2l-1 1l-3 2l-1 2l-1 1l-3 2l-2 2l-2 1l-1 2l-2 2l-2 1l-1 2l-3 2l-1 2l-1 1l-1 2l-2 2l-1 1l-2 2l-2 2l-1 1l-1 2l-2 2l-1 1l-1 2l-1 2l-2 2l-1 1l-1 2
l-2 2l-1 1l-1 2l-1 2l-2 1l-1 2l-1 2l-1 1l-2 4l-1 1l-1 2l-2 2l-1 2l-1 3l-1 2l-2 1l-1 4l-1 1l-2 4l-1 1l-1 4l-1 1l-2 4l-1 3l-1 2l-1 3l-2 4l-1 3l-1 3l-2 4l-1 3l-1 5l-1 5l-2 7l-1 7l-1 3l-2 9l-1 10v45zM444 868l-14 -1l-13 -2l-12 -2l-10 -2l-9 -1l-9 -2l-8 -2
l-7 -1l-7 -2l-7 -2l-7 -1l-5 -2l-6 -2l-7 -1l-5 -2l-5 -2l-5 -1l-5 -2l-5 -2l-4 -2l-5 -1l-5 -2l-4 -2l-4 -1l-5 -2l-4 -2l-4 -1l-3 -2l-4 -2l-4 -1l-4 -2l-4 -2l-4 -2l-2 -1l-4 -2l-4 -2l-2 -1l-4 -2l-3 -2l-4 -1l-2 -2l-4 -2l-3 -1l-2 -2l-4 -2l-2 -1l-3 -2l-3 -2l-2 -2
l-4 -1l-3 -2l-2 -2l-3 -1l-2 -2l-3 -2l-2 -1l-3 -2l-2 -2l-2 -1l-2 -2l-3 -2l-2 -1l-3 -2l-2 -2l-2 -2l-2 -1l-3 -2l-1 -2l-3 -1l-2 -2l-2 -2l-2 -1l-1 -2l-3 -2l-2 -1l-2 -2l-2 -2l-2 -2l-2 -1l-1 -2l-3 -2l-1 -1l-2 -2l-2 -2l-1 -1l-2 -2l-2 -2l-1 -1l-2 -2l-2 -2l-2 -1
l-1 -2l-2 -2l-2 -2l-1 -1l-1 -2l-2 -2l-2 -1l-1 -2l-2 -2l-1 -1l-1 -2l-1 -2l-2 -1l-2 -2l-2 -2l-1 -1l-1 -2l-1 -2l-2 -2l-1 -1l-1 -2l-2 -2l-1 -1l-1 -2l-1 -2l-2 -1l-1 -2l-1 -2l-1 -1l-2 -4l-1 -2l-1 -1l-2 -2l-1 -2l-1 -1l-1 -2l-2 -3l-1 -2l-1 -2l-2 -1l-1 -4l-1 -1
l-1 -2l-2 -4l-1 -1l-1 -4l-1 -1l-2 -4l-1 -1l-1 -4l-2 -1l-1 -4l-1 -2l-1 -3l-2 -3l-1 -4l-1 -3l-2 -3l-1 -4l-1 -3l-1 -4l-2 -3l-1 -3l-1 -5l-1 -4l-2 -5l-1 -5l-1 -5l-2 -7l-1 -5l-1 -8l-1 -9l-2 -11v-55l2 -11l1 -9l1 -8l1 -7l2 -5l1 -5l1 -5l2 -5l1 -4l1 -5l1 -3l2 -3
l1 -4l1 -5l1 -3l2 -2l1 -3l1 -4l2 -3l1 -4l1 -1l1 -4l2 -1l1 -4l1 -3l2 -2l1 -1l1 -4l1 -1l2 -4l1 -2l1 -1l1 -4l2 -1l1 -2l1 -2l2 -3l1 -2l1 -1l1 -2l2 -2l1 -1l1 -4l2 -2l1 -1l1 -2l1 -2l2 -1l1 -2l1 -2l1 -1l2 -2l1 -2l1 -1l2 -2l1 -2l1 -2l1 -1l2 -2l1 -2l3 -1l1 -2
l1 -2l1 -1l2 -2l1 -2l1 -1l3 -2l1 -2l1 -1l2 -2l2 -2l1 -2l2 -1l2 -2l2 -2l1 -1l2 -2l2 -2l1 -1l2 -2l2 -2l1 -1l3 -2l1 -2l2 -1l2 -2l2 -2l2 -2l2 -1l3 -2l1 -2l2 -1l2 -2l2 -2l3 -1l1 -2l3 -2l2 -1l2 -2l2 -2l3 -2l2 -1l3 -2l1 -2l3 -1l2 -2l3 -2l2 -1l3 -2l2 -2l3 -1
l2 -2l3 -2l3 -1l3 -2l3 -2l3 -2l2 -1l4 -2l2 -2l3 -1l4 -2l2 -2l4 -1l3 -2l4 -2l2 -1l4 -2l4 -2l2 -1l4 -2l4 -2l4 -2l4 -1l4 -2l3 -2l4 -1l4 -2l4 -2l5 -1l4 -2l5 -2l4 -1l5 -2l5 -2l5 -2l5 -1l5 -2l7 -2l5 -1l6 -2l5 -2l7 -1l7 -2l7 -2l7 -1l8 -2l9 -2l6 -1l-1 -4l-1 -5
l-1 -5l-2 -3l-1 -5l-1 -4l-1 -5l-2 -3l-1 -4l-1 -5l-2 -3l-1 -3l-1 -4l-1 -3l-2 -5l-1 -4l-1 -3l-2 -3l-1 -2l-1 -3l-1 -4l-2 -3l-1 -4l-1 -3l-1 -2l-2 -3l-1 -3l-1 -2l-2 -3l-1 -2l-1 -4l-1 -3l-2 -2l-1 -3l-1 -2l-2 -1l-1 -4l-1 -1l-1 -2l-2 -4l-1 -1l-1 -2l-1 -3l-2 -2
l-1 -2l-1 -1l-2 -2l-1 -2l-1 -3l-1 -2l-2 -1l-1 -2l-1 -2l-2 -2l-1 -1l-1 -2l-1 -2l-2 -1l-2 -2l-1 -2l-2 -1l-1 -2l-1 -2l-3 -1l-1 -2l-1 -2l-3 -2l-1 -1l-3 -2l-1 -2v-1h22l10 1l6 2l7 2l5 1l5 2l4 2l4 2l3 1l4 2l4 2l4 1l2 2l4 2l3 1l4 2l2 2l3 1l2 2l3 2l2 1l3 2l3 2
l2 2l3 1l2 2l3 2l1 1l3 2l2 2l3 1l1 2l3 2l2 1l1 2l3 2l1 1l3 2l1 2l3 2l1 1l2 2l2 2l2 1l2 2l2 2l1 1l3 2l1 2l1 1l3 2l1 2l2 2l2 1l1 2l2 2l2 1l2 2l1 2l1 1l3 2l1 2l1 1l1 2l3 2l1 1l2 2l1 2l1 2l3 1l1 2l1 2l2 1l1 2l1 2l3 1l1 2l1 2l1 1l2 2l1 2l1 1l2 2l1 2l2 2l2 1
l1 2l1 2l2 1l1 2l1 2l1 1l2 2l1 2l1 1l1 2l2 2l1 2l1 1l2 2l1 2l1 1l1 2l2 2l1 1l18 2l19 2l15 1l13 2l12 2l9 1l9 2l8 2l8 2l8 1l7 2l7 2l6 1l7 2l5 2l6 1l5 2l5 2l5 1l6 2l5 2l5 1l4 2l5 2l4 2l5 1l4 2l3 2l4 1l4 2l4 2l4 1l4 2l3 2l4 1l4 2l3 2l3 2l3 1l4 2l4 2l2 1l3 2
l4 2l2 1l4 2l2 2l3 1l3 2l2 2l4 1l3 2l2 2l3 2l2 1l3 2l2 2l3 1l2 2l3 2l3 1l1 2l2 2l3 1l2 2l3 2l1 1l3 2l2 2l2 2l2 1l3 2l1 2l3 1l2 2l1 2l3 1l1 2l3 2l1 1l3 2l1 2l3 1l1 2l1 2l3 2l1 1l2 2l2 2l1 1l3 2l1 2l1 1l1 2l3 2l1 1l2 2l1 2l2 2l2 1l1 2l1 2l1 1l2 2l1 2l3 1
l1 2l1 2l1 1l2 2l1 2l1 1l2 2l1 2l1 2l1 1l2 2l1 2l1 1l1 2l2 2l1 1l1 2l2 3l1 2l1 2l1 1l2 2l1 2l1 3l2 2l1 2l1 1l1 4l2 1l1 2l1 3l1 2l2 4l1 1l1 2l2 3l1 4l1 1l1 4l2 1l1 4l1 3l2 4l1 3l1 2l1 3l2 3l1 5l1 4l1 3l2 5l1 4l1 5l2 5l1 5l1 7l1 5l2 8l1 9l1 10v55l-1 12
l-1 9l-2 8l-1 5l-1 7l-1 5l-2 5l-1 5l-1 4l-2 5l-1 3l-1 3l-1 4l-2 3l-1 4l-1 3l-1 3l-2 4l-1 3l-1 3l-2 2l-1 3l-1 2l-1 4l-2 1l-1 4l-1 1l-2 4l-1 1l-1 4l-1 1l-2 2l-1 4l-1 1l-1 2l-2 2l-1 3l-1 2l-2 1l-1 2l-1 2l-1 1l-2 2l-1 3l-1 2l-2 2l-1 2l-1 1l-1 2l-2 2l-1 1
l-1 2l-1 2l-2 1l-1 2l-1 2l-2 1l-1 2l-1 2l-3 1l-1 2l-1 2l-2 2l-1 1l-1 2l-1 2l-3 1l-1 2l-1 2l-2 1l-1 2l-3 2l-1 1l-1 2l-3 2l-1 2l-1 1l-3 2l-1 2l-1 1l-3 2l-1 2l-1 1l-3 2l-1 2l-3 1l-1 2l-3 2l-1 1l-3 2l-2 2l-1 2l-3 1l-1 2l-3 2l-2 1l-2 2l-2 2l-3 1l-1 2l-3 2
l-2 1l-3 2l-2 2l-3 1l-1 2l-3 2l-2 2l-3 1l-2 2l-3 2l-2 1l-3 2l-2 2l-4 1l-3 2l-2 2l-3 1l-3 2l-3 2l-3 2l-2 1l-4 2l-3 2l-4 1l-2 2l-4 2l-3 1l-3 2l-4 2l-3 1l-4 2l-3 2l-4 1l-4 2l-4 2l-4 2l-4 1l-3 2l-6 2l-3 1l-4 2l-5 2l-5 1l-4 2l-5 2l-6 1l-5 2l-5 2l-5 1l-6 2
l-7 2l-5 2l-6 1l-8 2l-6 2l-8 1l-8 2l-8 2l-9 1l-11 2l-11 2l-13 1l-14 2l-20 2h-95z" />
    <glyph glyph-name="uniE607" unicode="&#xe607;" 
d="M802 626h-73l-24 48q-1 3 -4 8q-3 6 -4 9t-4 7.5t-4.5 7t-4.5 6t-5.5 5t-6 3.5t-7.5 2.5t-8 0.5h-292q-4 0 -8 -0.5t-7.5 -2.5t-6 -3.5t-5.5 -5.5l-4 -6q-2 -2 -5 -7t-4 -7t-4 -8.5t-4 -8.5l-24 -48h-73q-27 0 -49 -13t-35 -35.5t-13 -48.5v-388q0 -41 28.5 -69t68.5 -28
h582q40 0 68.5 28t28.5 69v388q0 26 -13 48.5t-35 35.5t-49 13zM851 141q0 -20 -14.5 -34.5t-34.5 -14.5h-582q-20 0 -34.5 14.5t-14.5 34.5v388q0 13 6.5 24t18 17.5t24.5 6.5h97l24 49q4 5 9 15t8 14.5t8 9.5t10.5 7t13.5 2h242q7 0 12 -1.5t8.5 -4t7.5 -8t6.5 -9.5t7 -12
t7.5 -13l24 -49h97q20 0 34.5 -14t14.5 -34v-388zM511 529q-39 0 -75 -15.5t-62 -41.5t-41.5 -62t-15.5 -75q0 -53 26 -97.5t70.5 -70.5t97.5 -26t97.5 26t70.5 70.5t26 97t-26 97.5t-70.5 71t-97.5 26zM511 189q-40 0 -73.5 19.5t-53 53t-19.5 73.5q0 60 43 102.5t103 42.5
t103 -42.5t43 -103t-43 -103t-103 -42.5z" />
    <glyph glyph-name="uniE608" unicode="&#xe608;" 
d="M684 532q14 0 32 -2q-22 99 -115.5 164t-214.5 65q-66 0 -126 -21.5t-104 -58.5t-70 -88.5t-26 -108.5q0 -129 131 -221l-33 -98l114 58q84 -17 114 -17q17 0 31 2q-10 33 -10 68q0 70 36.5 129.5t100.5 94t140 34.5zM509 620q12 0 21 -5t14 -14t5 -21q0 -19 -11 -30
t-29 -11q-20 0 -35 11.5t-15 29.5q1 17 16 28.5t34 11.5zM280 539q-19 0 -34 11.5t-15 29t15 29t34 11.5t30 -11t11 -29q0 -12 -5 -21.5t-14.5 -14.5t-21.5 -5zM982 278q0 97 -83 166.5t-194 69.5q-116 0 -197 -69t-81 -167q0 -99 81 -168t197 -69q15 0 34 3t30 5.5t34 7.5
l89 -49l-24 82q114 86 114 188zM615 318q-12 0 -22.5 10.5t-10.5 22.5t10.5 22t22.5 10q9 0 16.5 -2.5t13 -7t8.5 -10.5t3 -12q0 -13 -12 -23t-29 -10zM794 318q-12 0 -22 10.5t-10 22.5t10 22t22 10q9 0 17 -2.5t13 -7t8 -10.5t3 -12q0 -5 -2 -9.5t-5.5 -9t-8.5 -7.5
t-11.5 -5t-13.5 -2z" />
    <glyph glyph-name="uniE609" unicode="&#xe609;" 
d="M957 484q-1 5 -19 10t-45.5 9t-60.5 8t-65 7t-59 5.5t-43 4t-17 1.5q-111 279 -138 279q-25 0 -135 -272l-3 -7q-300 -22 -309 -45q-5 -11 52.5 -66t112 -102t58.5 -50l-41 -193q-20 -107 -11 -114q17 -12 276 145l143 -86q123 -70 134 -59q15 16 -42 263q0 1 -28.5 -2
t-82 -6.5t-102.5 -3.5q-44 -1 -96 0.5t-82 3.5l-31 2l258 191q-80 14 -141 20q-48 4 -121 7l-33 3q16 4 86 8t138 2q42 -1 89 -6t72 -10l26 -4l-257 -183q56 -9 103 -11q40 -1 89 -1h78l30 1l-6 33l122 107q105 96 101 111zM957 484z" />
    <glyph glyph-name="uniE60A" unicode="&#xe60a;" 
d="M924 273q-3 -12 -8 -26h-304q8 6 15.5 12.5t13.5 14.5l9 11l38 38l18 17l202 202q21 -53 28 -111l2 -24q1 -12 1 -24q0 -55 -15 -110zM778 274zM681 400q-1 8 -2 15v53v25v285q26 -11 50.5 -26t47.5 -33q20 -15 36 -32q40 -39 68 -88l2 -4l2 -4q1 -2 2.5 -4t2.5 -4l2 -4
l2 -4l-215 -214q2 10 2 19v20zM777 496v1v-1zM623 514q-6 5 -12 9l-38 38l-17 17l-202 202q53 21 110 28q13 1 25 2t24 1q11 0 22.5 -1t22.5 -2t22 -2.5t21.5 -4t21.5 -5.5q3 -1 6.5 -2t6.5 -2t6.5 -2t6.5 -2v-303q-6 8 -12.5 15.5t-13.5 13.5zM622 651l1 -1v1h-1zM498 553
q-8 -1 -15 -2h-53h-25h-286q22 53 58 98l16 18l16 18q40 39 89 67l6 4l6 2l6 4t6 3l215 -214q-7 1 -13.5 1.5t-13.5 0.5h-12zM401 649zM383 494q-5 -5 -9 -11l-38 -38l-18 -17l-202 -202q-21 53 -28 110q-1 6 -1.5 12t-0.5 12t-0.5 12.5t-0.5 12.5q0 55 15 109q1 5 2.5 9.5
t2.5 8.5t3 9h304q-17 -12 -29 -27zM246 494zM343 370q1 -7 2 -15v-53v-25v-285q-53 23 -99 59q-19 15 -36 32q-39 39 -67 88q-2 3 -3.5 6t-3.5 6t-3.5 6t-2.5 6l215 214q-2 -10 -2.5 -19.5t0.5 -19.5zM246 274v-1v1zM401 254l4 -4l4 -2q2 -2 4 -3l38 -38l17 -17l202 -202
q-53 -21 -110 -28q-13 -1 -25 -2t-24 -1q-55 0 -110 15q-4 1 -8.5 2.5t-9 2.5t-8.5 3v303l6 -8q3 -4 7 -7l6 -8zM401 117h1l-1 1v-1zM524 214q8 0 15 1h53h25h286q-11 -26 -25.5 -50.5t-32.5 -46.5q-8 -10 -16 -19t-16 -17q-40 -40 -89 -68q-11 -6 -24 -13l-215 214
q20 -3 39 -1zM621 117v1v-1z" />
    <glyph glyph-name="uniE60B" unicode="&#xe60b;" 
d="M904 748q-4 2 -9 2q-13 0 -23 -9q-694 -349 -746 -376q-23 -12 -21 -33q2 -18 19 -23q237 -75 238 -75l4 -1l13 41l-208 65l639 332q-170 -192 -357 -404q-24 -27 -24 -58v-126v-43v-2q1 -8 7.5 -14t15 -6t14.5 6t7 14v168q-1 16 9 27q90 102 381 432q-8 -40 -34 -168.5
t-48 -239.5t-23 -114t-3 -3h-1q-11 4 -230 70l-3 1l-14 -42l4 -1l12 -4q12 -3 31 -9t42.5 -13t47.5 -14.5t44.5 -13.5t35.5 -10.5t19 -6.5q4 -1 7 -1h6q17 0 29.5 10.5t15.5 27.5q2 8 46 228q29 144 49.5 245t20.5 105l1 2q1 7 1 11.5t-3.5 11.5t-11.5 11zM904 748z" />
    <glyph glyph-name="uniE60C" unicode="&#xe60c;" 
d="M37 530q-6 0 -12 -2t-10.5 -5t-7.5 -7.5t-5 -10t-2 -11.5v-512q0 -15 10.5 -26t26 -11t26 11t10.5 26v512q0 15 -10.5 25.5t-25.5 10.5zM915 530h-217q14 32 22.5 95t0.5 122q-6 52 -34.5 89t-71.5 52q-33 11 -64.5 6.5t-50.5 -23.5q-14 -14 -25.5 -40t-17 -46.5
t-15.5 -60.5q-6 -26 -9.5 -40t-10 -32.5t-12.5 -28.5q-23 -39 -65.5 -66t-59.5 -27h-102q-10 0 -18.5 -5t-13.5 -13t-5 -18v-512q0 -15 11 -26t26 -11h99q9 0 37.5 -11.5t62 -25t82.5 -25t94 -11.5h247q23 0 48 5.5t50.5 19.5t38.5 34q17 29 49.5 237t32.5 252q0 29 -17 55
t-42 40.5t-50 14.5z" />
    <glyph glyph-name="uniE60D" unicode="&#xe60d;" 
d="M511 72l-271 -142q-9 -6 -20.5 2t-6.5 18l54 303l-224 217q-6 7 -6.5 15t4.5 13.5t15 5.5l305 49l136 276q1 6 12 11v-768h2z" />
    <glyph glyph-name="uniE60E" unicode="&#xe60e;" 
d="M602 -65h-179q-55 0 -82 0.5t-70 3t-64 8t-44.5 15t-33 25t-9.5 36.5v18q0 123 89 210.5t214 87.5h179q125 0 214 -87.5t89 -210.5v-18q0 -16 -5.5 -29t-19.5 -22t-27 -15.5t-39 -10.5t-44 -6t-52.5 -3t-55 -1.5t-60.5 -0.5zM423 287q-67 0 -125 -33t-91.5 -89.5
t-33.5 -123.5v-18q0 -34 210 -35h40h179q49 0 79 1t76.5 3.5t71 10.5t24.5 20v18q0 102 -73.5 174t-177.5 72h-179zM503.5 357q-99.5 0 -170 69.5t-70.5 167.5t70.5 167.5t170 69.5t170.5 -69.5t71 -167.5t-71 -167.5t-170.5 -69.5zM316 594.5q0 -76.5 55 -130.5t133 -54
t133 54t55 130.5t-55 130.5t-133 54t-133 -54t-55 -130.5z" />
    <glyph glyph-name="uniE60F" unicode="&#xe60f;" 
d="M704 762q-54 0 -105 -24t-87 -65q-23 27 -54 47.5t-66.5 31t-71.5 10.5q-99 0 -167 -67.5t-68 -166.5q0 -30 6 -59t21 -59.5t30.5 -56.5t44 -59t51.5 -58t64 -63t70.5 -65t80.5 -71l59 -56l60 56q7 6 21 19q50 46 74.5 69t65.5 62.5t61 61.5t48.5 55.5t42 57.5t28.5 53.5
t20.5 56.5t5.5 56q0 99 -67.5 166.5t-167.5 67.5zM517 96h-5l-4 5q-56 50 -84.5 75.5t-71 66.5t-64 64.5t-48.5 57t-39 57.5t-21 51.5t-9 54.5q0 64 42.5 106.5t106.5 42.5q48 0 91.5 -29t62.5 -73h81q10 29 33.5 52.5t54 36.5t61.5 13q64 0 107 -42.5t43 -106.5
q0 -26 -9 -53.5t-20.5 -51t-38 -57t-47 -56.5t-63 -64t-69 -66t-82.5 -76q-6 -5 -8 -8z" />
    <glyph glyph-name="uniE610" unicode="&#xe610;" 
d="M512 -21l-59 60q-59 51 -92 81t-77.5 73t-69.5 71t-53.5 65.5t-42.5 67t-23.5 64t-9.5 69.5q0 99 68 166.5t167 67.5q54 0 105.5 -23.5t86.5 -65.5q36 42 87 65.5t105 23.5q100 0 167.5 -67.5t67.5 -166.5q0 -35 -9.5 -69.5t-23.5 -64t-42.5 -67t-53 -65.5t-69.5 -71
t-78 -73t-91 -81z" />
    <glyph glyph-name="uniE611" unicode="&#xe611;" horiz-adv-x="1025" 
d="M37 -55q-16 0 -26.5 11t-10.5 26v512q0 15 10.5 25.5t26 10.5t26 -10.5t10.5 -25.5v-512q0 -10 -5 -18.5t-13 -13.5t-18 -5zM915 530h-217q14 32 22.5 95t1.5 122q-7 52 -35.5 89t-72.5 52q-13 5 -26 6.5t-25.5 1t-24 -3.5t-21 -8.5t-17.5 -13.5q-14 -13 -25.5 -39.5
t-17 -46.5t-15.5 -60l-6 -24l-6 -22q-3 -14 -6 -22t-6.5 -17.5t-7.5 -15.5q-12 -21 -31 -38.5t-39.5 -29t-32.5 -16.5t-21 -9h-103q-15 0 -26 -10.5t-11 -25.5v-512q0 -15 11 -26t26 -11h99q17 -9 39 -18.5t59.5 -23.5t84.5 -22.5t93 -8.5h247q37 0 78 15t59 45
q18 29 50 236.5t32 251.5t-35 77t-74 33zM879 -31q-3 -5 -14 -10.5t-28 -9.5t-32 -4h-247q-27 0 -54.5 4t-51 10.5t-46 14.5t-39.5 16t-29.5 14t-19.5 10l-7 4h-18h-74v439h73q2 0 9 2h1h1l2 1q1 0 2 1q14 4 30 11.5t42.5 22t52 38.5t41.5 53q9 14 16.5 36t12 38t11.5 47
q6 22 9 34t8.5 31t11 30.5t10.5 16.5q4 3 14.5 3.5t27.5 -4.5q47 -19 55 -80q6 -51 -3.5 -109.5t-17.5 -81t-15 -38.5l-1 -1q-1 -3 -2 -6.5t-1 -7t0.5 -7t2 -7t3.5 -6.5q10 -17 31 -17h268q4 0 10 -3t12 -8t10.5 -12t4.5 -14q0 -39 -30.5 -232.5t-41.5 -218.5z" />
    <glyph glyph-name="uniE612" unicode="&#xe612;" 
d="M766 256q16 -75 29 -137l2 -10q1 -5 2 -10.5t2 -10.5l2 -10q1 -5 2 -11q3 -13 5 -24.5t4 -22.5q5 -21 7.5 -35.5t3.5 -18.5q3 -19 -8.5 -25.5t-25.5 -6.5q-3 0 -6.5 1t-7.5 3q-9 3 -14 5l-250 146q-68 -41 -124 -72q-25 -14 -48 -27q-11 -7 -22 -13t-20 -12
q-19 -12 -33 -19q-3 -2 -5 -3t-3.5 -2t-3 -1.5t-3 -1.5t-2.5 -1.5t-2 -0.5q-10 -5 -20 -3q-5 0 -9.5 2t-8.5 5t-7 6.5t-5 7.5q-4 8 -2 17q1 4 5 18q2 8 4 17t5 19q5 21 11 45q6 26 13 51q14 61 32 134q-56 49 -101 88q-11 8 -20 16l-18 16q-18 15 -34 29q-7 6 -13 11.5
t-11 9.5l-11 9q-11 10 -19.5 23t-6.5 26.5t10.5 21t19.5 9.5l296 27l111 257q5 16 15.5 27t29.5 11q9 0 16.5 -4.5t12 -10.5t8 -11.5t5.5 -9.5l107 -257l297 -28q19 -4 26.5 -11t7.5 -21q0 -7 -2 -13t-6 -11q-8 -10 -21 -24zM766 256z" />
  </font>
</defs>
</svg>
